<?xml version="1.0" encoding="UTF-8"?>
<svg xmlns="http://www.w3.org/2000/svg" xmlns:xlink="http://www.w3.org/1999/xlink" width="375pt" height="374.999991pt" viewBox="0 0 375 374.999991" version="1.2">
<defs>
<clipPath id="clip1">
  <path d="M 9 42 L 365 42 L 365 342.886719 L 9 342.886719 Z M 9 42 "/>
</clipPath>
<clipPath id="clip2">
  <path d="M 187 42 L 365 42 L 365 342.886719 L 187 342.886719 Z M 187 42 "/>
</clipPath>
</defs>
<g id="surface1">
<g clip-path="url(#clip1)" clip-rule="nonzero">
<path style=" stroke:none;fill-rule:nonzero;fill:rgb(100%,100%,100%);fill-opacity:1;" d="M 187.421875 343.050781 L 39.589844 204.40625 C 1.882812 169.042969 -0.046875 109.777344 35.273438 72.03125 C 70.589844 34.28125 129.789062 32.347656 167.496094 67.707031 L 187.421875 86.394531 L 207.34375 67.707031 C 245.050781 32.347656 304.25 34.28125 339.570312 72.03125 C 374.890625 109.777344 372.957031 169.042969 335.25 204.40625 Z M 187.421875 343.050781 "/>
</g>
<g clip-path="url(#clip2)" clip-rule="nonzero">
<path style=" stroke:none;fill-rule:nonzero;fill:rgb(100%,100%,100%);fill-opacity:1;" d="M 339.566406 72.03125 C 304.246094 34.28125 245.046875 32.347656 207.34375 67.707031 L 187.417969 86.398438 L 187.417969 343.054688 L 335.25 204.40625 C 372.957031 169.042969 374.886719 109.777344 339.566406 72.03125 Z M 339.566406 72.03125 "/>
</g>
</g>
</svg>
