<?xml version="1.0" encoding="UTF-8"?>
<svg xmlns="http://www.w3.org/2000/svg" xmlns:xlink="http://www.w3.org/1999/xlink" width="375pt" height="374.999991pt" viewBox="0 0 375 374.999991" version="1.2">
<defs>
<clipPath id="clip1">
  <path d="M 16 40 L 367.589844 40 L 367.589844 343.449219 L 16 343.449219 Z M 16 40 "/>
</clipPath>
</defs>
<g id="surface1">
<g clip-path="url(#clip1)" clip-rule="nonzero">
<path style=" stroke:none;fill-rule:nonzero;fill:rgb(100%,100%,100%);fill-opacity:1;" d="M 192.042969 343.46875 C 190.484375 343.46875 188.976562 342.847656 187.875 341.746094 L 65.859375 219.832031 C 65.667969 219.640625 65.492188 219.4375 65.332031 219.230469 L 43.671875 197.585938 C 7.738281 161.683594 7.738281 103.265625 43.671875 67.363281 C 79.601562 31.460938 138.070312 31.460938 174.003906 67.363281 L 192.082031 85.425781 L 210.160156 67.363281 C 246.089844 31.460938 304.558594 31.457031 340.492188 67.363281 C 357.898438 84.753906 367.484375 107.878906 367.484375 132.472656 C 367.484375 157.070312 357.898438 180.195312 340.492188 197.585938 L 318.824219 219.234375 C 318.667969 219.441406 318.492188 219.640625 318.304688 219.832031 L 196.285156 341.746094 C 195.300781 342.734375 193.984375 343.332031 192.597656 343.445312 C 192.429688 343.460938 192.261719 343.46875 192.09375 343.46875 C 192.078125 343.46875 192.058594 343.46875 192.042969 343.46875 Z M 187.953125 341.746094 C 188.636719 342.433594 189.453125 342.910156 190.320312 343.183594 C 189.433594 342.902344 188.617188 342.414062 187.953125 341.746094 Z M 196.207031 341.746094 C 195.785156 342.167969 195.304688 342.519531 194.785156 342.792969 C 195.296875 342.523438 195.777344 342.175781 196.207031 341.746094 Z M 74.71875 212.109375 L 192.082031 329.375 L 309.449219 212.101562 C 309.605469 211.894531 309.78125 211.695312 309.96875 211.503906 L 332.195312 189.296875 C 347.386719 174.121094 355.753906 153.9375 355.753906 132.472656 C 355.753906 111.007812 347.386719 90.828125 332.195312 75.648438 C 300.835938 44.316406 249.8125 44.316406 218.453125 75.648438 L 196.226562 97.855469 C 195.128906 98.957031 193.636719 99.574219 192.082031 99.574219 C 190.527344 99.574219 189.035156 98.957031 187.933594 97.855469 L 165.707031 75.648438 C 134.351562 44.316406 83.324219 44.316406 51.964844 75.648438 C 20.609375 106.984375 20.609375 157.964844 51.964844 189.296875 L 74.191406 211.507812 C 74.382812 211.699219 74.558594 211.898438 74.71875 212.109375 Z M 74.71875 212.109375 "/>
</g>
</g>
</svg>
