<?xml version="1.0" encoding="UTF-8"?>
<svg xmlns="http://www.w3.org/2000/svg" xmlns:xlink="http://www.w3.org/1999/xlink" width="375pt" height="374.999991pt" viewBox="0 0 375 374.999991" version="1.2">
<defs>
<clipPath id="clip1">
  <path d="M 3.078125 27.75 L 367 27.75 L 367 342 L 3.078125 342 Z M 3.078125 27.75 "/>
</clipPath>
</defs>
<g id="surface1">
<g clip-path="url(#clip1)" clip-rule="nonzero">
<path style=" stroke:none;fill-rule:nonzero;fill:rgb(100%,100%,100%);fill-opacity:1;" d="M 282.132812 197.457031 C 268.738281 197.457031 257.890625 186.597656 257.890625 173.183594 C 257.890625 159.769531 268.738281 148.90625 282.132812 148.90625 C 295.53125 148.90625 306.375 159.769531 306.375 173.183594 C 306.375 186.597656 295.53125 197.457031 282.132812 197.457031 Z M 88.164062 197.457031 C 74.765625 197.457031 63.921875 186.597656 63.921875 173.183594 C 63.921875 159.769531 74.765625 148.90625 88.164062 148.90625 C 101.558594 148.90625 112.40625 159.769531 112.40625 173.183594 C 112.40625 186.597656 101.558594 197.457031 88.164062 197.457031 Z M 185.164062 197.457031 C 171.769531 197.457031 160.921875 186.597656 160.921875 173.183594 C 160.921875 159.769531 171.769531 148.90625 185.164062 148.90625 C 198.527344 148.90625 209.40625 159.769531 209.40625 173.183594 C 209.40625 186.597656 198.527344 197.457031 185.164062 197.457031 Z M 352.761719 229.429688 C 348.046875 238.316406 342.269531 246.753906 335.523438 254.640625 C 328.714844 262.625 371.582031 334.191406 362.960938 340.949219 C 354.34375 347.707031 263.25 304.777344 251.886719 308.460938 C 229.90625 315.605469 211.890625 319.550781 185.164062 319.550781 C 83.707031 319.550781 6.335938 254.15625 3.300781 173.539062 C 6.335938 92.886719 83.707031 27.492188 185.164062 27.492188 C 289.523438 27.492188 366.898438 92.886719 366.898438 173.503906 C 366.898438 193.320312 361.863281 212.199219 352.761719 229.429688 "/>
</g>
</g>
</svg>
